<?xml version="1.0" encoding="UTF-8" standalone="no"?>
<svg
   xmlns:dc="http://purl.org/dc/elements/1.1/"
   xmlns:cc="http://creativecommons.org/ns#"
   xmlns:rdf="http://www.w3.org/1999/02/22-rdf-syntax-ns#"
   xmlns:svg="http://www.w3.org/2000/svg"
   xmlns="http://www.w3.org/2000/svg"
   id="svg2"
   width="24"
   version="1.1"
   height="24">
  <metadata
     id="metadata18">
    <rdf:RDF>
      <cc:Work
         rdf:about="">
        <dc:format>image/svg+xml</dc:format>
        <dc:type
           rdf:resource="http://purl.org/dc/dcmitype/StillImage" />
        <dc:title></dc:title>
      </cc:Work>
    </rdf:RDF>
  </metadata>
  <defs
     id="defs16" />
  <g
     id="g4"
     transform="translate(0 -1028.4)">
    <path
       id="path6"
       transform="translate(0 1029.4)"
       fill="#27ae60"
       d="m22 12c0 5.523-4.477 10-10 10-5.5228 0-10-4.477-10-10 0-5.5228 4.4772-10 10-10 5.523 0 10 4.4772 10 10z" />
    <path
       id="path8"
       transform="translate(0 1028.4)"
       fill="#2ecc71"
       d="m22 12c0 5.523-4.477 10-10 10-5.5228 0-10-4.477-10-10 0-5.5228 4.4772-10 10-10 5.523 0 10 4.4772 10 10z" />
    <path
       id="path10"
       fill="#27ae60"
       d="m6.0001 1042.4h4.9999v5h2v-5h5v-2h-5v-5h-2v5h-4.9999v2z" />
    <path
       id="path12"
       fill="#ecf0f1"
       d="m6 1041.4h5v5h2v-5h5v-2h-5v-5h-2v5h-5v2z" />
  </g>
</svg>
