<?xml version="1.0" encoding="UTF-8" standalone="no"?>
<svg
   xmlns:dc="http://purl.org/dc/elements/1.1/"
   xmlns:cc="http://creativecommons.org/ns#"
   xmlns:rdf="http://www.w3.org/1999/02/22-rdf-syntax-ns#"
   xmlns:svg="http://www.w3.org/2000/svg"
   xmlns="http://www.w3.org/2000/svg"
   width="96"
   height="96"
   id="svg2"
   version="1.1">
  <metadata
     id="metadata10">
    <rdf:RDF>
      <cc:Work
         rdf:about="">
        <dc:format>image/svg+xml</dc:format>
        <dc:type
           rdf:resource="http://purl.org/dc/dcmitype/StillImage" />
        <dc:title></dc:title>
      </cc:Work>
    </rdf:RDF>
  </metadata>
  <defs
     id="defs4" />
  <path
     id="path4135"
     d="M 45.5 4.7167969 L 45.5 16.074219 C 29.829316 17.291307 17.291307 29.829316 16.074219 45.5 L 4.7167969 45.5 L 4.7167969 50.5 L 16.074219 50.5 C 17.291307 66.170684 29.829316 78.708693 45.5 79.925781 L 45.5 91.283203 L 50.5 91.283203 L 50.5 79.925781 C 66.170684 78.708693 78.708693 66.170684 79.925781 50.5 L 91.283203 50.5 L 91.283203 45.5 L 79.925781 45.5 C 78.708693 29.829316 66.170684 17.291307 50.5 16.074219 L 50.5 4.7167969 L 45.5 4.7167969 z M 45.5 21.085938 L 45.5 45.5 L 21.085938 45.5 C 22.26786 32.541788 32.541788 22.26786 45.5 21.085938 z M 50.5 21.085938 C 63.458212 22.26786 73.73214 32.541788 74.914062 45.5 L 50.5 45.5 L 50.5 21.085938 z M 21.085938 50.5 L 45.5 50.5 L 45.5 74.914062 C 32.541788 73.73214 22.26786 63.458212 21.085938 50.5 z M 50.5 50.5 L 74.914062 50.5 C 73.73214 63.458212 63.458212 73.73214 50.5 74.914062 L 50.5 50.5 z "
     style="color:#000000;font-style:normal;font-variant:normal;font-weight:normal;font-stretch:normal;font-size:medium;line-height:normal;font-family:sans-serif;text-indent:0;text-align:start;text-decoration:none;text-decoration-line:none;text-decoration-style:solid;text-decoration-color:#000000;letter-spacing:normal;word-spacing:normal;text-transform:none;direction:ltr;block-progression:tb;writing-mode:lr-tb;baseline-shift:baseline;text-anchor:start;white-space:normal;clip-rule:nonzero;display:inline;overflow:visible;visibility:visible;opacity:1;isolation:auto;mix-blend-mode:normal;color-interpolation:sRGB;color-interpolation-filters:linearRGB;solid-color:#000000;solid-opacity:1;fill:#f6f5f0;fill-opacity:1;fill-rule:nonzero;stroke:none;stroke-width:5;stroke-linecap:butt;stroke-linejoin:miter;stroke-miterlimit:4;stroke-dasharray:none;stroke-dashoffset:0;stroke-opacity:1;color-rendering:auto;image-rendering:auto;shape-rendering:auto;text-rendering:auto;enable-background:accumulate" />
</svg>
