<?xml version="1.0" encoding="UTF-8" standalone="no"?>
<svg
   xmlns:dc="http://purl.org/dc/elements/1.1/"
   xmlns:cc="http://creativecommons.org/ns#"
   xmlns:rdf="http://www.w3.org/1999/02/22-rdf-syntax-ns#"
   xmlns:svg="http://www.w3.org/2000/svg"
   xmlns="http://www.w3.org/2000/svg"
   width="24px"
   height="24px"
   id="svg2"
   version="1.1">
  <metadata
     id="metadata10">
    <rdf:RDF>
      <cc:Work
         rdf:about="">
        <dc:format>image/svg+xml</dc:format>
        <dc:type
           rdf:resource="http://purl.org/dc/dcmitype/StillImage" />
        <dc:title></dc:title>
      </cc:Work>
    </rdf:RDF>
  </metadata>
  <defs
     id="defs4" />
  <path
     id="path4195"
     d="M 11.234375 2 L 11.234375 3.8925781 C 7.3538454 4.2564997 4.2564997 7.3538454 3.8925781 11.234375 L 2 11.234375 L 2 12.765625 L 3.8925781 12.765625 C 4.2564996 16.646155 7.3538454 19.7435 11.234375 20.107422 L 11.234375 22 L 12.765625 22 L 12.765625 20.107422 C 16.646155 19.7435 19.7435 16.646155 20.107422 12.765625 L 22 12.765625 L 22 11.234375 L 20.107422 11.234375 C 19.7435 7.3538454 16.646155 4.2564996 12.765625 3.8925781 L 12.765625 2 L 11.234375 2 z M 11.234375 5.4296875 L 11.234375 5.8554688 L 12.765625 5.8554688 L 12.765625 5.4296875 C 15.814098 5.7792289 18.220771 8.1859023 18.570312 11.234375 L 18.144531 11.234375 L 18.144531 12.765625 L 18.570312 12.765625 C 18.44385 13.868549 18.041336 14.882121 17.443359 15.75 L 8.0859375 6.6699219 C 8.9881424 6.007142 10.061623 5.5641566 11.234375 5.4296875 z M 6.5546875 8.25 L 15.912109 17.332031 C 15.010357 17.993899 13.937414 18.435954 12.765625 18.570312 L 12.765625 18.144531 L 11.234375 18.144531 L 11.234375 18.570312 C 8.1859023 18.220771 5.7792289 15.814098 5.4296875 12.765625 L 5.8554688 12.765625 L 5.8554688 11.234375 L 5.4296875 11.234375 C 5.5561101 10.1318 5.9570277 9.1177003 6.5546875 8.25 z "
     style="color:#000000;font-style:normal;font-variant:normal;font-weight:normal;font-stretch:normal;font-size:medium;line-height:normal;font-family:sans-serif;text-indent:0;text-align:start;text-decoration:none;text-decoration-line:none;text-decoration-style:solid;text-decoration-color:#000000;letter-spacing:normal;word-spacing:normal;text-transform:none;direction:ltr;block-progression:tb;writing-mode:lr-tb;baseline-shift:baseline;text-anchor:start;white-space:normal;clip-rule:nonzero;display:inline;overflow:visible;visibility:visible;opacity:1;isolation:auto;mix-blend-mode:normal;color-interpolation:sRGB;color-interpolation-filters:linearRGB;solid-color:#000000;solid-opacity:1;fill:#f6f5f0;fill-opacity:1;fill-rule:evenodd;stroke:none;stroke-width:1.52932441;stroke-linecap:butt;stroke-linejoin:miter;stroke-miterlimit:4;stroke-dasharray:none;stroke-dashoffset:0;stroke-opacity:1;color-rendering:auto;image-rendering:auto;shape-rendering:auto;text-rendering:auto;enable-background:accumulate" />
</svg>
