<?xml version="1.0" encoding="UTF-8" standalone="no"?>
<svg
   xmlns:dc="http://purl.org/dc/elements/1.1/"
   xmlns:cc="http://creativecommons.org/ns#"
   xmlns:rdf="http://www.w3.org/1999/02/22-rdf-syntax-ns#"
   xmlns:svg="http://www.w3.org/2000/svg"
   xmlns="http://www.w3.org/2000/svg"
   version="1.1"
   id="svg2"
   viewBox="0 0 24 24"
   height="24"
   width="24">
  <defs
     id="defs4" />
  <metadata
     id="metadata7">
    <rdf:RDF>
      <cc:Work
         rdf:about="">
        <dc:format>image/svg+xml</dc:format>
        <dc:type
           rdf:resource="http://purl.org/dc/dcmitype/StillImage" />
        <dc:title></dc:title>
        <cc:license
           rdf:resource="http://creativecommons.org/licenses/by/3.0/" />
      </cc:Work>
      <cc:License
         rdf:about="http://creativecommons.org/licenses/by/3.0/">
        <cc:permits
           rdf:resource="http://creativecommons.org/ns#Reproduction" />
        <cc:permits
           rdf:resource="http://creativecommons.org/ns#Distribution" />
        <cc:requires
           rdf:resource="http://creativecommons.org/ns#Notice" />
        <cc:requires
           rdf:resource="http://creativecommons.org/ns#Attribution" />
        <cc:permits
           rdf:resource="http://creativecommons.org/ns#DerivativeWorks" />
      </cc:License>
    </rdf:RDF>
  </metadata>
  <path
     id="rect4134"
     d="M 12,0.68652362 C 10.913411,4.4573569 9.8268227,8.2281901 8.7402342,11.999023 c 2.1731778,0 4.3463548,0 6.5195318,0 C 14.173177,8.2281902 13.086589,4.4573569 12,0.68652362 Z m 0,2.99804688 c 0.696615,2.7708333 1.393229,5.5416666 2.089844,8.3124995 -1.476563,0.0026 -2.953125,0.0052 -4.429688,0.0078 C 10.440104,9.2314371 11.220052,6.4580038 12,3.6845705 Z M 8.7402342,12.000976 C 9.8268227,15.771809 10.913411,19.542643 12,23.313476 c 1.086589,-3.770833 2.173177,-7.541667 3.259766,-11.3125 -2.173177,0 -4.346354,0 -6.5195318,0 z"
     style="opacity:1;fill:#f6f5f0;fill-opacity:1;stroke:none;stroke-width:1;stroke-miterlimit:4;stroke-dasharray:none" />
</svg>
