<?xml version="1.0" encoding="UTF-8" standalone="no"?>
<svg
   xmlns:dc="http://purl.org/dc/elements/1.1/"
   xmlns:cc="http://creativecommons.org/ns#"
   xmlns:rdf="http://www.w3.org/1999/02/22-rdf-syntax-ns#"
   xmlns:svg="http://www.w3.org/2000/svg"
   xmlns="http://www.w3.org/2000/svg"
   id="svg2"
   width="24"
   version="1.1"
   height="24">
  <metadata
     id="metadata18">
    <rdf:RDF>
      <cc:Work
         rdf:about="">
        <dc:format>image/svg+xml</dc:format>
        <dc:type
           rdf:resource="http://purl.org/dc/dcmitype/StillImage" />
        <dc:title></dc:title>
      </cc:Work>
    </rdf:RDF>
  </metadata>
  <defs
     id="defs16" />
  <path
     id="path4134"
     d="m 14.664062,1.0996093 c -4.403001,2e-7 -7.9999993,3.5969977 -7.9999993,8 0,1.6610537 0.5146663,3.2065027 1.3886719,4.4882817 l -6.7167969,7.279297 2.203125,2.033203 6.6367183,-7.1875 c 1.281589,0.873602 2.827647,1.386718 4.488281,1.386719 4.403003,0 8.000001,-3.596998 8,-8.0000008 0,-4.4030024 -3.596997,-8 -8,-8 z m 0,2.5800781 c 3.009026,0 5.421875,2.4108974 5.421876,5.4199219 0,3.0090247 -2.41285,5.4218747 -5.421876,5.4218747 -3.009024,0 -5.4199212,-2.41285 -5.4199212,-5.4218747 0,-3.0090244 2.4108982,-5.4199217 5.4199212,-5.4199219 z"
     style="color:#000000;font-style:normal;font-variant:normal;font-weight:normal;font-stretch:normal;font-size:medium;line-height:normal;font-family:sans-serif;text-indent:0;text-align:start;text-decoration:none;text-decoration-line:none;text-decoration-style:solid;text-decoration-color:#000000;letter-spacing:normal;word-spacing:normal;text-transform:none;direction:ltr;block-progression:tb;writing-mode:lr-tb;baseline-shift:baseline;text-anchor:start;white-space:normal;clip-rule:nonzero;display:inline;overflow:visible;visibility:visible;opacity:1;isolation:auto;mix-blend-mode:normal;color-interpolation:sRGB;color-interpolation-filters:linearRGB;solid-color:#000000;solid-opacity:1;fill:#f6f5f0;fill-opacity:1;fill-rule:nonzero;stroke:none;stroke-width:2.57933831;stroke-linecap:square;stroke-linejoin:miter;stroke-miterlimit:4;stroke-dasharray:none;stroke-dashoffset:0;stroke-opacity:1;color-rendering:auto;image-rendering:auto;shape-rendering:auto;text-rendering:auto;enable-background:accumulate" />
</svg>
