<?xml version="1.0" encoding="UTF-8" standalone="no"?>
<svg
   xmlns:dc="http://purl.org/dc/elements/1.1/"
   xmlns:cc="http://creativecommons.org/ns#"
   xmlns:rdf="http://www.w3.org/1999/02/22-rdf-syntax-ns#"
   xmlns:svg="http://www.w3.org/2000/svg"
   xmlns="http://www.w3.org/2000/svg"
   width="24px"
   height="24px"
   id="svg2"
   version="1.1">
  <metadata
     id="metadata10">
    <rdf:RDF>
      <cc:Work
         rdf:about="">
        <dc:format>image/svg+xml</dc:format>
        <dc:type
           rdf:resource="http://purl.org/dc/dcmitype/StillImage" />
        <dc:title></dc:title>
      </cc:Work>
    </rdf:RDF>
  </metadata>
  <defs
     id="defs4" />
  <path
     id="path4160"
     d="m 12,2.1269531 c -0.08275,-3.288e-4 -0.165483,0.00228 -0.248047,0.00781 -0.116563,0.00916 -0.232594,0.024151 -0.347656,0.044922 -0.114441,0.019092 -0.227863,0.043862 -0.339844,0.074219 -0.112465,0.031546 -0.223281,0.068702 -0.332031,0.1113282 -0.109086,0.042145 -0.215991,0.089731 -0.320313,0.1425781 -0.10374,0.052871 -0.204777,0.1108861 -0.302734,0.1738281 C 10.010951,2.7451847 9.9157788,2.8136302 9.8242188,2.8867188 9.7325376,2.959094 9.6445369,3.0360132 9.5605469,3.1171875 9.476907,3.1984512 9.3973808,3.2838442 9.3222656,3.3730469 9.2473921,3.4619354 9.1769924,3.554498 9.1113281,3.6503906 9.0458399,3.7469113 8.9852174,3.8466451 8.9296875,3.9492188 8.8729806,4.0520328 8.8214832,4.157635 8.7753906,4.265625 8.7302441,4.3729503 8.6904811,4.4824614 8.65625,4.59375 8.6212875,4.70549 8.5919538,4.8189138 8.5683594,4.9335938 8.5456874,5.0479109 8.5287392,5.163289 8.5175781,5.2792969 8.5059561,5.394819 8.5000895,5.5108479 8.5,5.6269531 c 2.748e-4,0.083423 0.00353,0.1668097 0.00977,0.25 0.00793,0.1158434 0.021618,0.2312204 0.041016,0.3457031 0.019672,0.1151319 0.045094,0.2292069 0.076172,0.3417969 0.031608,0.1118056 0.068763,0.221968 0.1113281,0.3300781 0.042145,0.1090857 0.089731,0.2159906 0.1425782,0.3203126 0.052814,0.104404 0.1108293,0.2060941 0.1738281,0.3046874 0.062964,0.097715 0.1307559,0.1922337 0.203125,0.2832032 0.072375,0.091681 0.1492943,0.1796818 0.2304687,0.2636718 0.081264,0.08364 0.1666567,0.1631661 0.2558594,0.2382813 0.089523,0.074926 0.1827388,0.1453267 0.2792975,0.2109375 0.09652,0.065488 0.196254,0.1261107 0.298828,0.1816406 0.102177,0.056648 0.207126,0.1081448 0.314453,0.1542969 0.09665,0.040199 0.195058,0.076043 0.294922,0.1074219 l 0,7.5209996 c 0.646457,0.416621 1.598336,0.456933 2.136718,0 l 0,-7.5229528 c 0.06706,-0.020138 0.133492,-0.042283 0.199219,-0.066406 0.109086,-0.042145 0.215991,-0.089731 0.320313,-0.1425781 0.10374,-0.052871 0.204777,-0.1108861 0.302734,-0.1738281 0.09842,-0.063544 0.193596,-0.1319896 0.285156,-0.2050782 0.09168,-0.072375 0.179682,-0.1492944 0.263672,-0.2304687 0.08364,-0.081264 0.163166,-0.1666567 0.238281,-0.2558594 0.07487,-0.088889 0.145274,-0.1814511 0.210938,-0.2773437 0.06549,-0.096521 0.12611,-0.1962545 0.18164,-0.2988282 0.05671,-0.102814 0.108204,-0.2084162 0.154297,-0.3164062 0.04515,-0.1073253 0.08491,-0.2168364 0.119141,-0.328125 0.03496,-0.11174 0.0643,-0.2251638 0.08789,-0.3398438 0.02267,-0.1143171 0.03962,-0.2296952 0.05078,-0.3457031 0.01169,-0.1161703 0.01755,-0.2328527 0.01758,-0.3496094 -3.21e-4,-0.082772 -0.0036,-0.1655061 -0.0098,-0.2480469 C 15.482305,5.2630631 15.468585,5.147686 15.449195,5.0332033 15.429547,4.9180712 15.404125,4.8039962 15.373047,4.6914062 15.341501,4.5789409 15.304345,4.4681251 15.261719,4.359375 15.219514,4.2509514 15.171929,4.1446997 15.119141,4.0410156 15.066327,3.9366116 15.008311,3.8349214 14.945312,3.7363281 14.882349,3.6386126 14.814557,3.5440945 14.742188,3.453125 14.669813,3.3614439 14.592894,3.2734431 14.511719,3.1894531 14.430455,3.1058133 14.345062,3.0262871 14.255859,2.9511719 14.166381,2.8755796 14.073165,2.8045267 13.976562,2.7382812 13.880083,2.6721281 13.780349,2.6108533 13.677734,2.5546875 13.575479,2.499366 13.470531,2.4491736 13.363281,2.4042969 13.255992,2.3584894 13.146481,2.3180744 13.035156,2.2832031 12.923381,2.2488991 12.809958,2.2202173 12.695312,2.1972656 12.581028,2.1739383 12.46565,2.1563382 12.349609,2.1445312 12.233439,2.1328445 12.116757,2.1269778 12,2.1269531 Z"
     style="opacity:1;fill:#f6f5f0;fill-opacity:1;stroke:none;stroke-width:1;stroke-miterlimit:4;stroke-dasharray:none" />
  <path
     id="rect4135"
     d="m 10.398438,11.416016 -7.146485,4.546875 c -0.6374028,0.405574 -0.6374028,1.059269 0,1.464843 l 7.597656,4.833985 c 0.637403,0.405574 1.663379,0.405574 2.300782,0 l 7.597656,-4.833985 c 0.637403,-0.405574 0.637403,-1.059269 0,-1.464843 l -7.146485,-4.546875 0,2.685546 a 4.6525421,2.3135593 0 0 1 0.210938,0.03906 4.6525421,2.3135593 0 0 1 0.417969,0.09961 4.6525421,2.3135593 0 0 1 0.396484,0.121094 4.6525421,2.3135593 0 0 1 0.371094,0.140625 4.6525421,2.3135593 0 0 1 0.339844,0.158203 4.6525421,2.3135593 0 0 1 0.30664,0.173828 4.6525421,2.3135593 0 0 1 0.269531,0.1875 4.6525421,2.3135593 0 0 1 0.232422,0.201172 4.6525421,2.3135593 0 0 1 0.189454,0.210938 4.6525421,2.3135593 0 0 1 0.146484,0.21875 4.6525421,2.3135593 0 0 1 0.101562,0.226562 4.6525421,2.3135593 0 0 1 0.05664,0.228516 4.6525421,2.3135593 0 0 1 0.01172,0.164062 4.6525421,2.3135593 0 0 1 -0.02344,0.230469 4.6525421,2.3135593 0 0 1 -0.06836,0.228516 4.6525421,2.3135593 0 0 1 -0.115235,0.224609 4.6525421,2.3135593 0 0 1 -0.160156,0.216797 4.6525421,2.3135593 0 0 1 -0.203125,0.208984 4.6525421,2.3135593 0 0 1 -0.242187,0.197266 4.6525421,2.3135593 0 0 1 -0.28125,0.183594 4.6525421,2.3135593 0 0 1 -0.316406,0.169922 4.6525421,2.3135593 0 0 1 -0.34961,0.152343 4.6525421,2.3135593 0 0 1 -0.378906,0.134766 4.6525421,2.3135593 0 0 1 -0.402344,0.115234 4.6525421,2.3135593 0 0 1 -0.425781,0.09375 4.6525421,2.3135593 0 0 1 -0.441406,0.07227 4.6525421,2.3135593 0 0 1 -0.453125,0.05078 4.6525421,2.3135593 0 0 1 -0.460938,0.02734 A 4.6525421,2.3135593 0 0 1 12,18.583984 4.6525421,2.3135593 0 0 1 11.535156,18.572266 4.6525421,2.3135593 0 0 1 11.076172,18.539062 4.6525421,2.3135593 0 0 1 10.625,18.480469 4.6525421,2.3135593 0 0 1 10.1875,18.402344 4.6525421,2.3135593 0 0 1 9.7695311,18.300781 4.6525421,2.3135593 0 0 1 9.3730468,18.179688 4.6525421,2.3135593 0 0 1 9.001953,18.041016 4.6525421,2.3135593 0 0 1 8.6621093,17.882812 4.6525421,2.3135593 0 0 1 8.3554687,17.708984 4.6525421,2.3135593 0 0 1 8.0859374,17.521484 4.6525421,2.3135593 0 0 1 7.8535155,17.320312 4.6525421,2.3135593 0 0 1 7.6640624,17.109375 4.6525421,2.3135593 0 0 1 7.517578,16.890625 4.6525421,2.3135593 0 0 1 7.4160155,16.664062 4.6525421,2.3135593 0 0 1 7.3593749,16.435547 4.6525421,2.3135593 0 0 1 7.3476561,16.271484 4.6525421,2.3135593 0 0 1 7.3710937,16.041016 4.6525421,2.3135593 0 0 1 7.439453,15.8125 a 4.6525421,2.3135593 0 0 1 0.1152344,-0.224609 4.6525421,2.3135593 0 0 1 0.1601563,-0.216797 4.6525421,2.3135593 0 0 1 0.203125,-0.208985 4.6525421,2.3135593 0 0 1 0.2421874,-0.197265 4.6525421,2.3135593 0 0 1 0.28125,-0.183594 4.6525421,2.3135593 0 0 1 0.3164063,-0.169922 4.6525421,2.3135593 0 0 1 0.3496094,-0.152344 4.6525421,2.3135593 0 0 1 0.3789062,-0.134765 4.6525421,2.3135593 0 0 1 0.4023438,-0.115235 4.6525421,2.3135593 0 0 1 0.4257812,-0.09375 4.6525421,2.3135593 0 0 1 0.08399,-0.01367 l 0,-2.685546 z"
     style="opacity:1;fill:#f6f5f0;fill-opacity:1;stroke:none;stroke-width:1;stroke-miterlimit:4;stroke-dasharray:none" />
</svg>
