<?xml version="1.0" encoding="UTF-8" standalone="no"?>
<svg
   xmlns:dc="http://purl.org/dc/elements/1.1/"
   xmlns:cc="http://creativecommons.org/ns#"
   xmlns:rdf="http://www.w3.org/1999/02/22-rdf-syntax-ns#"
   xmlns:svg="http://www.w3.org/2000/svg"
   xmlns="http://www.w3.org/2000/svg"
   height="24"
   version="1.1"
   width="24"
   id="svg2">
  <metadata
     id="metadata14">
    <rdf:RDF>
      <cc:Work
         rdf:about="">
        <dc:format>image/svg+xml</dc:format>
        <dc:type
           rdf:resource="http://purl.org/dc/dcmitype/StillImage" />
        <dc:title></dc:title>
      </cc:Work>
    </rdf:RDF>
  </metadata>
  <defs
     id="defs12" />
  <g
     transform="matrix(0.95550847,0,0,0.96186441,0.53389836,-988.72373)"
     id="g4">
    <path
       d="M 12,0 C 7.5817,0 4,3.5817 4,8 c 0,1.421 0.3816,2.75 1.0312,3.906 0.1079,0.192 0.221,0.381 0.3438,0.563 L 12,24 18.625,12.469 c 0.102,-0.151 0.19,-0.311 0.281,-0.469 l 0.063,-0.094 C 19.618,10.75 20,9.421 20,8 20,3.5817 16.418,0 12,0 Z m 0,4 c 2.209,0 4,1.7909 4,4 0,2.209 -1.791,4 -4,4 C 9.7909,12 8,10.209 8,8 8,5.7909 9.7909,4 12,4 Z"
       transform="translate(0,1028.4)"
       id="path6"
       style="fill:#ffffff" />
  </g>
</svg>
