<?xml version="1.0" encoding="UTF-8" standalone="no"?>
<svg
   xmlns:dc="http://purl.org/dc/elements/1.1/"
   xmlns:cc="http://creativecommons.org/ns#"
   xmlns:rdf="http://www.w3.org/1999/02/22-rdf-syntax-ns#"
   xmlns:svg="http://www.w3.org/2000/svg"
   xmlns="http://www.w3.org/2000/svg"
   id="svg2"
   width="24"
   version="1.1"
   height="24">
  <metadata
     id="metadata18">
    <rdf:RDF>
      <cc:Work
         rdf:about="">
        <dc:format>image/svg+xml</dc:format>
        <dc:type
           rdf:resource="http://purl.org/dc/dcmitype/StillImage" />
        <dc:title></dc:title>
      </cc:Work>
    </rdf:RDF>
  </metadata>
  <defs
     id="defs16" />
  <rect
     transform="matrix(0.82539679,0.56455305,-0.82539679,0.56455305,0,0)"
     y="1.419533"
     x="16.088676"
     height="11.366846"
     width="11.236165"
     id="rect4303"
     style="opacity:1;fill:none;fill-opacity:1;fill-rule:evenodd;stroke:#f6f5f0;stroke-width:1.40695715;stroke-linecap:butt;stroke-linejoin:miter;stroke-miterlimit:4;stroke-dasharray:none;stroke-dashoffset:0;stroke-opacity:1" />
  <g
     transform="matrix(0.95550847,0,0,0.96186441,-7.0165616,-992.47184)"
     id="g4">
    <path
       d="m 19.902037,1034.5304 c -2.631059,0 -4.763929,2.0029 -4.763929,4.4738 0,0.7946 0.22724,1.5379 0.614071,2.1843 0.06425,0.1074 0.131603,0.2131 0.20473,0.3149 l 3.945128,6.4484 3.945127,-6.4484 c 0.06074,-0.084 0.113143,-0.174 0.167333,-0.2623 l 0.03751,-0.053 c 0.386474,-0.6464 0.613952,-1.3897 0.613952,-2.1843 0,-2.4709 -2.133049,-4.4738 -4.763928,-4.4738 z m 0,2.2369 c 1.315439,0 2.381964,1.0015 2.381964,2.2369 0,1.2353 -1.066525,2.2369 -2.381964,2.2369 -1.3155,0 -2.381965,-1.0016 -2.381965,-2.2369 0,-1.2354 1.066465,-2.2369 2.381965,-2.2369 z"
       id="path6"
       style="fill:#ffffff" />
  </g>
</svg>
