<?xml version="1.0" encoding="UTF-8" standalone="no"?>
<svg
   xmlns:dc="http://purl.org/dc/elements/1.1/"
   xmlns:cc="http://creativecommons.org/ns#"
   xmlns:rdf="http://www.w3.org/1999/02/22-rdf-syntax-ns#"
   xmlns:svg="http://www.w3.org/2000/svg"
   xmlns="http://www.w3.org/2000/svg"
   width="24px"
   height="24px"
   id="svg2"
   version="1.1">
  <metadata
     id="metadata10">
    <rdf:RDF>
      <cc:Work
         rdf:about="">
        <dc:format>image/svg+xml</dc:format>
        <dc:type
           rdf:resource="http://purl.org/dc/dcmitype/StillImage" />
        <dc:title></dc:title>
      </cc:Work>
    </rdf:RDF>
  </metadata>
  <defs
     id="defs4" />
  <path
     id="path4195"
     d="M 11.234375 2 L 11.234375 3.8925781 C 7.3538454 4.2564997 4.2564997 7.3538454 3.8925781 11.234375 L 2 11.234375 L 2 12.765625 L 3.8925781 12.765625 C 4.2564996 16.646155 7.3538454 19.7435 11.234375 20.107422 L 11.234375 22 L 12.765625 22 L 12.765625 20.107422 C 16.646155 19.7435 19.7435 16.646155 20.107422 12.765625 L 22 12.765625 L 22 11.234375 L 20.107422 11.234375 C 19.7435 7.3538454 16.646155 4.2564996 12.765625 3.8925781 L 12.765625 2 L 11.234375 2 z M 11.234375 5.4296875 L 11.234375 8.0957031 L 9.6621094 8.1074219 L 12 11.199219 L 14.335938 8.0722656 L 12.765625 8.0839844 L 12.765625 5.4296875 C 15.814098 5.7792289 18.220771 8.1859023 18.570312 11.234375 L 15.921875 11.234375 L 15.910156 9.6621094 L 12.818359 12 L 15.945312 14.337891 L 15.933594 12.765625 L 18.570312 12.765625 C 18.220772 15.814098 15.814098 18.220771 12.765625 18.570312 L 12.765625 15.904297 L 14.335938 15.892578 L 12.765625 13.814453 L 12.765625 13.794922 L 12.751953 13.794922 L 12 12.800781 L 11.255859 13.794922 L 11.234375 13.794922 L 11.234375 13.824219 L 9.6621094 15.927734 L 11.234375 15.916016 L 11.234375 18.570312 C 8.1859023 18.220771 5.7792289 15.814098 5.4296875 12.765625 L 8.078125 12.765625 L 8.0898438 14.337891 L 11.181641 12 L 8.0546875 9.6621094 L 8.0664062 11.234375 L 5.4296875 11.234375 C 5.7792289 8.1859023 8.1859023 5.7792289 11.234375 5.4296875 z "
     style="color:#000000;font-style:normal;font-variant:normal;font-weight:normal;font-stretch:normal;font-size:medium;line-height:normal;font-family:sans-serif;text-indent:0;text-align:start;text-decoration:none;text-decoration-line:none;text-decoration-style:solid;text-decoration-color:#000000;letter-spacing:normal;word-spacing:normal;text-transform:none;writing-mode:lr-tb;direction:ltr;baseline-shift:baseline;text-anchor:start;white-space:normal;clip-rule:nonzero;display:inline;overflow:visible;visibility:visible;opacity:1;isolation:auto;mix-blend-mode:normal;color-interpolation:sRGB;color-interpolation-filters:linearRGB;solid-color:#000000;solid-opacity:1;fill:#f6f5f0;fill-opacity:1;fill-rule:evenodd;stroke:none;stroke-width:1.52932441;stroke-linecap:butt;stroke-linejoin:miter;stroke-miterlimit:4;stroke-dasharray:none;stroke-dashoffset:0;stroke-opacity:1;color-rendering:auto;image-rendering:auto;shape-rendering:auto;text-rendering:auto;enable-background:accumulate" />
</svg>
