<?xml version="1.0" encoding="UTF-8" standalone="no"?>
<svg
   xmlns:dc="http://purl.org/dc/elements/1.1/"
   xmlns:cc="http://creativecommons.org/ns#"
   xmlns:rdf="http://www.w3.org/1999/02/22-rdf-syntax-ns#"
   xmlns:svg="http://www.w3.org/2000/svg"
   xmlns="http://www.w3.org/2000/svg"
   width="24"
   height="24"
   viewBox="0 0 24 24"
   id="svg2"
   version="1.1">
  <defs
     id="defs4" />
  <metadata
     id="metadata7">
    <rdf:RDF>
      <cc:Work
         rdf:about="">
        <dc:format>image/svg+xml</dc:format>
        <dc:type
           rdf:resource="http://purl.org/dc/dcmitype/StillImage" />
        <dc:title></dc:title>
        <cc:license
           rdf:resource="http://creativecommons.org/licenses/by/3.0/" />
      </cc:Work>
      <cc:License
         rdf:about="http://creativecommons.org/licenses/by/3.0/">
        <cc:permits
           rdf:resource="http://creativecommons.org/ns#Reproduction" />
        <cc:permits
           rdf:resource="http://creativecommons.org/ns#Distribution" />
        <cc:requires
           rdf:resource="http://creativecommons.org/ns#Notice" />
        <cc:requires
           rdf:resource="http://creativecommons.org/ns#Attribution" />
        <cc:permits
           rdf:resource="http://creativecommons.org/ns#DerivativeWorks" />
      </cc:License>
    </rdf:RDF>
  </metadata>
  <g
     id="layer1"
     transform="matrix(1.1740701,0,0,1.103692,-6.7851216,-1131.8247)"
     style="fill:#e74c3c">
    <g
       id="g4903"
       style="fill:#e74c3c;fill-opacity:1;stroke:#000000;stroke-width:0;stroke-miterlimit:4;stroke-dasharray:none"
       transform="matrix(0.10700338,0,0,0.1105857,2.2172156,1022.5977)">
      <path
         style="fill:#e74c3c;fill-opacity:1;stroke:none;stroke-width:0;stroke-miterlimit:4;stroke-dasharray:none;stroke-opacity:1"
         id="path596"
         d="m 164.307,45.986 0,27.361 c 16.799,11.406 27.857,30.661 27.857,52.451 0,34.935 -28.422,63.356 -63.357,63.356 -34.935,0 -63.357,-28.421 -63.357,-63.356 0,-21.791 11.059,-41.045 27.857,-52.451 l 0,-27.361 C 62.78,59.618 41.45,90.263 41.45,125.799 c 0,48.168 39.188,87.356 87.357,87.356 48.169,0 87.357,-39.188 87.357,-87.356 0,-35.536 -21.33,-66.181 -51.857,-79.813 z" />
      <path
         style="fill:#e74c3c;fill-opacity:1;stroke:none;stroke-width:0;stroke-miterlimit:4;stroke-dasharray:none"
         id="path598"
         d="m 143.7773,158.218 -29.9406,0 0,-122.435 29.9406,0 0,122.435 z" />
    </g>
  </g>
</svg>
