<?xml version="1.0" encoding="UTF-8" standalone="no"?>
<svg
   xmlns:dc="http://purl.org/dc/elements/1.1/"
   xmlns:cc="http://creativecommons.org/ns#"
   xmlns:rdf="http://www.w3.org/1999/02/22-rdf-syntax-ns#"
   xmlns:svg="http://www.w3.org/2000/svg"
   xmlns="http://www.w3.org/2000/svg"
   id="svg2"
   width="36"
   version="1.1"
   height="36">
  <metadata
     id="metadata18">
    <rdf:RDF>
      <cc:Work
         rdf:about="">
        <dc:format>image/svg+xml</dc:format>
        <dc:type
           rdf:resource="http://purl.org/dc/dcmitype/StillImage" />
        <dc:title></dc:title>
      </cc:Work>
    </rdf:RDF>
  </metadata>
  <defs
     id="defs16" />
  <g
     id="g4"
     transform="matrix(1.5644068,0,0,1.5375303,-0.7728816,-1582.4153)">
    <path
       style="fill:#c0392b"
       id="path6"
       transform="translate(0,1029.4)"
       d="M 22,12 C 22,17.523 17.523,22 12,22 6.4772,22 2,17.523 2,12 2,6.4772 6.4772,2 12,2 17.523,2 22,6.4772 22,12 Z" />
    <path
       style="fill:#e74c3c"
       id="path8"
       transform="translate(0,1028.4)"
       d="M 22,12 C 22,17.523 17.523,22 12,22 6.4772,22 2,17.523 2,12 2,6.4772 6.4772,2 12,2 17.523,2 22,6.4772 22,12 Z" />
    <path
       style="fill:#c0392b"
       id="path10"
       d="m 7.0503,1037.8 3.5357,3.6 -3.5357,3.5 1.4142,1.4 3.5355,-3.5 3.536,3.5 1.414,-1.4 -3.536,-3.5 3.536,-3.6 -1.414,-1.4 -3.536,3.5 -3.5355,-3.5 -1.4142,1.4 z" />
    <path
       style="fill:#ecf0f1"
       id="path12"
       d="m 7.0503,1036.8 3.5357,3.6 -3.5357,3.5 1.4142,1.4 3.5355,-3.5 3.536,3.5 1.414,-1.4 -3.536,-3.5 3.536,-3.6 -1.414,-1.4 -3.536,3.5 -3.5355,-3.5 -1.4142,1.4 z" />
  </g>
</svg>
