<?xml version="1.0" encoding="UTF-8" standalone="no"?>
<svg
   xmlns:dc="http://purl.org/dc/elements/1.1/"
   xmlns:cc="http://creativecommons.org/ns#"
   xmlns:rdf="http://www.w3.org/1999/02/22-rdf-syntax-ns#"
   xmlns:svg="http://www.w3.org/2000/svg"
   xmlns="http://www.w3.org/2000/svg"
   version="1.1"
   x="0px"
   y="0px"
   width="24"
   height="24"
   viewBox="0 0 24 24"
   enable-background="new 0 0 32 32"
   xml:space="preserve"
   id="svg2"><metadata
     id="metadata8"><rdf:RDF><cc:Work
         rdf:about=""><dc:format>image/svg+xml</dc:format><dc:type
           rdf:resource="http://purl.org/dc/dcmitype/StillImage" /><dc:title></dc:title></cc:Work></rdf:RDF></metadata><defs
     id="defs13" /><g
     id="background"
     transform="translate(0,-8)"><rect
       width="32"
       height="32"
       id="rect6"
       x="0"
       y="0"
       style="fill:none" /></g><path
     id="path9"
     d="m 22.5,13.499249 0,-2.999249 -3.15075,0 C 19.161749,9.57975 18.802499,8.7239999 18.311999,7.9604998 l 2.2485,-2.2492499 -2.1225,-2.1209999 -2.21475,2.2139998 C 15.414751,5.2514999 14.493,4.8524999 13.499999,4.6507499 l 0,-3.1507499 -3,0 0,3.1507499 c -0.9577487,0.195 -1.8472491,0.5737499 -2.6339992,1.0942499 L 5.7104999,3.59025 l -2.12175,2.1202498 2.1554999,2.157 C 5.22375,8.6542499 4.845,9.543 4.6507499,10.5 l -3.15075,0 0,3.000001 3.1515001,0 C 4.8532499,14.493 5.2522499,15.41475 5.805,16.22325 l -2.2155001,2.21475 2.1225,2.1225 2.2485,-2.24925 c 0.76425,0.4905 1.6200003,0.850501 2.5402491,1.037999 l 0,3.150751 2.999249,0 0,-3.150751 c 0.957001,-0.194999 1.847251,-0.572999 2.634001,-1.094248 l 2.30475,2.305499 2.122499,-2.1225 -2.305499,-2.30475 c 0.5205,-0.7875 0.899251,-1.67625 1.093501,-2.634001 l 3.15075,0 z M 12,16.49925 C 9.5152499,16.494776 7.5044999,14.48325 7.49925,12 7.5052486,9.51525 9.5152499,7.5044999 12,7.4999998 14.484,7.5045011 16.494749,9.5145 16.49925,12 16.494764,14.484001 14.484,16.49475 12,16.49925 Z"
     style="fill:#f6f5f0" /></svg>