<?xml version="1.0" standalone="no"?>
<!DOCTYPE svg PUBLIC "-//W3C//DTD SVG 20010904//EN" "http://www.w3.org/TR/2001/REC-SVG-20010904/DTD/svg10.dtd">
<!-- Created using Karbon, part of Calligra: http://www.calligra.org/karbon -->
<svg xmlns="http://www.w3.org/2000/svg" xmlns:xlink="http://www.w3.org/1999/xlink" width="19.2pt" height="19.2pt">
<defs/>
<g id="g4150">
  <g id="group0" transform="translate(4.99404, 2.375)" fill="none">
   <g id="layer1" transform="translate(-1.15064, 6.45283)" fill="none">
    <path id="rect3308" transform="matrix(0.574964 0 0 0.646127 -0.713983 -1.45355)" fill="#ffffff" d="M17.4139 5.31851L17.4139 8.99977ZM17.4221 8.99726L17.4221 5.31595L7.03182 5.31853L9.74105 2.60332L7.14337 0L1.83656 5.31853L0 7.15914L1.83656 8.99976L2.59758 9.76247L7.14337 14.3183L9.74105 11.715L7.03182 8.99976Z"/>
   </g>
   <path id="rect3306" transform="matrix(-5.48173e-16 1 -1 -5.48173e-16 15.5059 0.625)" fill="#ffffff" d="M0 0L0 6.07146L18 6.07146L18 0L15.6006 0L15.6006 3.86439L2.39941 3.86439L2.39941 0Z"/>
  </g>
 </g>
</svg>
