<?xml version="1.0" encoding="UTF-8" standalone="no"?>
<svg
   xmlns:dc="http://purl.org/dc/elements/1.1/"
   xmlns:cc="http://creativecommons.org/ns#"
   xmlns:rdf="http://www.w3.org/1999/02/22-rdf-syntax-ns#"
   xmlns:svg="http://www.w3.org/2000/svg"
   xmlns="http://www.w3.org/2000/svg"
   width="24"
   height="24"
   id="svg2"
   version="1.1">
  <metadata
     id="metadata10">
    <rdf:RDF>
      <cc:Work
         rdf:about="">
        <dc:format>image/svg+xml</dc:format>
        <dc:type
           rdf:resource="http://purl.org/dc/dcmitype/StillImage" />
        <dc:title></dc:title>
      </cc:Work>
    </rdf:RDF>
  </metadata>
  <defs
     id="defs4" />
  <g
     transform="translate(-0.12367625,-0.80383535)"
     id="g4150">
    <g
       style="fill:#ffffff"
       transform="matrix(0,-0.57496414,-0.64612678,0,17.377753,20.220391)"
       id="layer1">
      <path
         style="fill:#ffffff"
         d="m 17.783122,6.29101 0,3.68126 z m 0.0082,3.67875 -10e-6,-3.68131 L 7.4010468,6.29103 10.110282,3.57582 7.5126008,0.9725 2.2057858,6.29103 0.36922982,8.13164 2.2057858,9.97226 l 0.761025,0.76271 4.54579,4.55583 2.5976812,-2.6033 -2.7092352,-2.71524 z"
         id="rect3308" />
    </g>
    <path
       style="fill:#ffffff;stroke:none"
       d="m 3.1236765,17.896772 0,6.071463 17.9999995,0 0,-6.071463 -2.399414,0 0,3.864393 -13.2011714,0 0,-3.864393 z"
       id="rect3306" />
    <path
       d="m 21.10172,8.1834387 c 0,0 -0.848077,-3.0393926 -3.217822,-3.048433 -2.369744,-0.00903 -2.482812,1.1137275 -4.962292,0.9992375 L 7.6630798,1.6394357 5.9746158,1.6783137 8.6561607,6.1327361 6.1213922,6.1323138 4.1745306,4.3065229 3.1619268,4.3266179 4.6786286,8.1651648 Z"
       id="path3"
       style="fill:#ffffff" />
  </g>
</svg>
