<?xml version="1.0" encoding="UTF-8" standalone="no"?>
<svg
   xmlns:dc="http://purl.org/dc/elements/1.1/"
   xmlns:cc="http://creativecommons.org/ns#"
   xmlns:rdf="http://www.w3.org/1999/02/22-rdf-syntax-ns#"
   xmlns:svg="http://www.w3.org/2000/svg"
   xmlns="http://www.w3.org/2000/svg"
   version="1.1"
   id="svg2"
   height="24"
   width="24">
  <metadata
     id="metadata12">
    <rdf:RDF>
      <cc:Work
         rdf:about="">
        <dc:format>image/svg+xml</dc:format>
        <dc:type
           rdf:resource="http://purl.org/dc/dcmitype/StillImage" />
        <dc:title></dc:title>
      </cc:Work>
    </rdf:RDF>
  </metadata>
  <defs
     id="defs4" />
  <path
     id="path4163"
     d="m 14.259765,0.34772433 c -1.380712,0 -2.5,1.11928817 -2.5,2.50000007 8.14e-4,0.4035828 0.09932,0.8009694 0.28711,1.1582031 L 7.6250003,9.3047557 C 7.5342443,9.2939022 7.4429615,9.288034 7.3515628,9.2871777 c -1.3807119,0 -2.5,1.1192883 -2.5,2.5000003 0,1.380712 1.1192881,2.5 2.5,2.5 0.9161535,5.63e-4 1.75923,-0.500038 2.1972657,-1.304688 l 4.8164055,-0.02344 c 0.07725,0.17456 0.174234,0.339698 0.289063,0.492187 l -3.997186,5.343618 c -0.264164,-0.09326 -0.542124,-0.141459 -0.8222655,-0.142579 -1.3807119,0 -2.5,1.119288 -2.5,2.5 0,1.380712 1.1192881,2.5 2.5,2.5 1.3807115,0 2.4999995,-1.119288 2.4999995,-2.5 -0.0012,-0.342985 -0.07304,-0.682047 -0.210937,-0.996093 l 4.319451,-5.718618 c 0.06817,0.0067 0.136587,0.01062 0.205078,0.01172 1.380712,0 2.5,-1.119288 2.5,-2.5 0,-1.380712 -1.119288,-2.4999999 -2.5,-2.4999999 -0.997702,2.407e-4 -1.899739,0.5936659 -2.294922,1.5097659 l -4.6386709,0.02344 C 9.6351288,10.748908 9.5212637,10.528418 9.3769535,10.328193 L 13.607422,5.2578807 c 0.212535,0.05858 0.431885,0.08879 0.652343,0.089844 1.380712,0 2.5,-1.1192881 2.5,-2.5 0,-1.3807119 -1.119288,-2.50000007 -2.5,-2.50000037 z"
     style="color:#000000;font-style:normal;font-variant:normal;font-weight:normal;font-stretch:normal;font-size:medium;line-height:normal;font-family:sans-serif;text-indent:0;text-align:start;text-decoration:none;text-decoration-line:none;text-decoration-style:solid;text-decoration-color:#000000;letter-spacing:normal;word-spacing:normal;text-transform:none;direction:ltr;block-progression:tb;writing-mode:lr-tb;baseline-shift:baseline;text-anchor:start;white-space:normal;clip-rule:nonzero;display:inline;overflow:visible;visibility:visible;opacity:1;isolation:auto;mix-blend-mode:normal;color-interpolation:sRGB;color-interpolation-filters:linearRGB;solid-color:#000000;solid-opacity:1;fill:#f6f5f0;fill-opacity:1;fill-rule:evenodd;stroke:none;stroke-width:2;stroke-linecap:butt;stroke-linejoin:round;stroke-miterlimit:4;stroke-dasharray:none;stroke-dashoffset:0;stroke-opacity:1;color-rendering:auto;image-rendering:auto;shape-rendering:auto;text-rendering:auto;enable-background:accumulate" />
</svg>
