<?xml version="1.0" encoding="UTF-8" standalone="no"?>
<svg
   xmlns:dc="http://purl.org/dc/elements/1.1/"
   xmlns:cc="http://creativecommons.org/ns#"
   xmlns:rdf="http://www.w3.org/1999/02/22-rdf-syntax-ns#"
   xmlns:svg="http://www.w3.org/2000/svg"
   xmlns="http://www.w3.org/2000/svg"
   id="svg2"
   width="24"
   version="1.1"
   height="24">
  <metadata
     id="metadata18">
    <rdf:RDF>
      <cc:Work
         rdf:about="">
        <dc:format>image/svg+xml</dc:format>
        <dc:type
           rdf:resource="http://purl.org/dc/dcmitype/StillImage" />
        <dc:title></dc:title>
      </cc:Work>
    </rdf:RDF>
  </metadata>
  <defs
     id="defs16" />
  <path
     id="path4155"
     d="M 9.589747,1.1002669 A 3.1601789,3.2625675 0 0 0 6.4295675,4.3628344 3.1601789,3.2625675 0 0 0 6.6311936,5.5013345 l -5.75662805,-0.00212 0.018516,5.2060885 a 3.1601789,3.2625675 0 0 1 0.77152805,-0.101955 3.1601789,3.2625675 0 0 1 3.1601789,3.262568 3.1601789,3.2625675 0 0 1 -3.1601789,3.262567 3.1601789,3.2625675 0 0 1 -0.74889645,-0.0977 l 0.020574,5.862426 7.45399005,0.0022 a 3.1601789,3.2625675 0 0 1 -0.1049285,-0.824139 3.1601789,3.2625675 0 0 1 3.1601783,-3.262567 3.1601789,3.2625675 0 0 1 3.160179,3.262567 3.1601789,3.2625675 0 0 1 -0.109042,0.826263 l 3.232188,0.0022 v -6.39769 a 3.1601789,3.2625675 0 0 0 2.236403,0.960078 3.1601789,3.2625675 0 0 0 3.160179,-3.262568 3.1601789,3.2625675 0 0 0 -3.160179,-3.262567 3.1601789,3.2625675 0 0 0 -2.23846,0.962202 V 5.5034585 l -5.178497,-0.00212 A 3.1601789,3.2625675 0 0 0 12.749925,4.3628377 3.1601789,3.2625675 0 0 0 9.5897465,1.1002703 Z"
     style="fill:#ffffff;fill-rule:evenodd;stroke:none;stroke-width:0.87180299px;stroke-linecap:butt;stroke-linejoin:miter;stroke-opacity:1" />
</svg>
