<?xml version="1.0" encoding="UTF-8" standalone="no"?>
<svg
   xmlns:dc="http://purl.org/dc/elements/1.1/"
   xmlns:cc="http://creativecommons.org/ns#"
   xmlns:rdf="http://www.w3.org/1999/02/22-rdf-syntax-ns#"
   xmlns:svg="http://www.w3.org/2000/svg"
   xmlns="http://www.w3.org/2000/svg"
   version="1.1"
   id="svg2"
   viewBox="0 0 24 24"
   height="24"
   width="24">
  <defs
     id="defs4" />
  <metadata
     id="metadata7">
    <rdf:RDF>
      <cc:Work
         rdf:about="">
        <dc:format>image/svg+xml</dc:format>
        <dc:type
           rdf:resource="http://purl.org/dc/dcmitype/StillImage" />
        <dc:title></dc:title>
        <cc:license
           rdf:resource="http://creativecommons.org/licenses/by/3.0/" />
      </cc:Work>
      <cc:License
         rdf:about="http://creativecommons.org/licenses/by/3.0/">
        <cc:permits
           rdf:resource="http://creativecommons.org/ns#Reproduction" />
        <cc:permits
           rdf:resource="http://creativecommons.org/ns#Distribution" />
        <cc:requires
           rdf:resource="http://creativecommons.org/ns#Notice" />
        <cc:requires
           rdf:resource="http://creativecommons.org/ns#Attribution" />
        <cc:permits
           rdf:resource="http://creativecommons.org/ns#DerivativeWorks" />
      </cc:License>
    </rdf:RDF>
  </metadata>
  <g
     style="fill:#ffffff;stroke:none"
     transform="matrix(1.1740701,0,0,1.103692,-6.7851216,-1131.8247)"
     id="layer1">
    <g
       transform="matrix(0.10700338,0,0,0.1105857,2.2172156,1022.5977)"
       style="fill:#ffffff;fill-opacity:1;stroke:none;stroke-width:0;stroke-miterlimit:4;stroke-dasharray:none"
       id="g4903">
      <path
         d="m 40.717317,31.357011 v 44.196568 25.255241 h 3.337772 24.683445 36.577816 V 75.553579 H 84.555715 C 96.398448,63.591128 112.50957,56.613247 128.77254,56.61225 c 16.91288,-0.0011 33.731,7.477745 45.69655,20.334955 11.96609,12.856712 18.93694,30.934215 18.93694,49.117015 h 23.49065 c 0,-24.79483 -9.50212,-49.440741 -25.81893,-66.973374 -16.31736,-17.532354 -39.24209,-27.735305 -62.30521,-27.733835 -23.06366,0.0015 -45.974452,10.21384 -62.270641,27.746195 -0.792176,0.852303 -1.535083,1.753822 -2.294036,2.638992 V 31.357011 Z"
         id="path3270"
         style="fill:#ffffff;fill-rule:evenodd;stroke-width:0" />
      <path
         d="m 216.63106,217.58165 v -43.8821 -25.07534 h -3.31401 -24.50771 -36.31746 v 25.07534 h 20.61271 c -11.75835,11.87749 -27.75478,18.80565 -43.90145,18.80671 -16.79334,0.001 -33.491381,-7.42454 -45.371322,-20.1903 C 71.9508,159.55041 65.029495,141.60261 65.029495,123.54894 H 41.705762 c 0,24.61859 9.434277,49.08875 25.63586,66.49623 16.201045,17.40766 38.962628,27.53794 61.861518,27.53648 22.89889,-0.001 45.64675,-10.14113 61.82696,-27.54867 0.78652,-0.8462 1.52404,-1.74129 2.27767,-2.62015 v 30.16882 z"
         id="path32701"
         style="fill:#ffffff;fill-rule:evenodd;stroke-width:0" />
    </g>
  </g>
</svg>
