<?xml version="1.0" encoding="UTF-8" standalone="no"?>
<svg
   xmlns:dc="http://purl.org/dc/elements/1.1/"
   xmlns:cc="http://creativecommons.org/ns#"
   xmlns:rdf="http://www.w3.org/1999/02/22-rdf-syntax-ns#"
   xmlns:svg="http://www.w3.org/2000/svg"
   xmlns="http://www.w3.org/2000/svg"
   version="1.1"
   id="svg2"
   viewBox="0 0 24 24"
   height="24"
   width="24">
  <defs
     id="defs4" />
  <metadata
     id="metadata7">
    <rdf:RDF>
      <cc:Work
         rdf:about="">
        <dc:format>image/svg+xml</dc:format>
        <dc:type
           rdf:resource="http://purl.org/dc/dcmitype/StillImage" />
        <dc:title></dc:title>
        <cc:license
           rdf:resource="http://creativecommons.org/licenses/by/3.0/" />
      </cc:Work>
      <cc:License
         rdf:about="http://creativecommons.org/licenses/by/3.0/">
        <cc:permits
           rdf:resource="http://creativecommons.org/ns#Reproduction" />
        <cc:permits
           rdf:resource="http://creativecommons.org/ns#Distribution" />
        <cc:requires
           rdf:resource="http://creativecommons.org/ns#Notice" />
        <cc:requires
           rdf:resource="http://creativecommons.org/ns#Attribution" />
        <cc:permits
           rdf:resource="http://creativecommons.org/ns#DerivativeWorks" />
      </cc:License>
    </rdf:RDF>
  </metadata>
  <path
     id="path4134"
     d="M 11.714844 6.3144531 A 11.237288 11.222085 0 0 0 6.3652344 7.8242188 A 11.237288 11.222085 0 0 0 0.76367188 17.640625 L 4.5253906 17.648438 L 4.5253906 16.072266 L 2.6894531 16.068359 A 9.3119392 8.0454292 0 0 1 7.3300781 9.0332031 A 9.3119392 8.0454292 0 0 1 11.763672 7.9492188 A 9.3119392 8.0454292 0 0 1 16.705078 9.0488281 A 9.3119392 8.0454292 0 0 1 21.310547 16.103516 L 19.474609 16.099609 L 19.474609 17.679688 L 23.236328 17.6875 A 11.237288 11.222085 0 0 0 17.677734 7.8496094 A 11.237288 11.222085 0 0 0 11.714844 6.3144531 z "
     style="opacity:1;fill:#f6f5f0;fill-opacity:1;stroke:none;stroke-width:4;stroke-miterlimit:4;stroke-dasharray:none" />
  <circle
     r="2"
     cy="16.915255"
     cx="12"
     id="path4155"
     style="opacity:1;fill:#f6f5f0;fill-opacity:1;stroke:none;stroke-width:4;stroke-miterlimit:4;stroke-dasharray:none" />
  <path
     id="path4159"
     d="m 12.279661,14.491525 4.0329,-4.8566802 -2.405781,5.7210872 c -0.360708,-0.53603 -0.92762,-0.802781 -1.627119,-0.864407 z"
     style="fill:#f6f5f0;fill-rule:evenodd;stroke:none;stroke-width:1px;stroke-linecap:butt;stroke-linejoin:miter;stroke-opacity:1" />
</svg>
