<?xml version="1.0" encoding="UTF-8" standalone="no"?>
<svg
   xmlns:dc="http://purl.org/dc/elements/1.1/"
   xmlns:cc="http://creativecommons.org/ns#"
   xmlns:rdf="http://www.w3.org/1999/02/22-rdf-syntax-ns#"
   xmlns:svg="http://www.w3.org/2000/svg"
   xmlns="http://www.w3.org/2000/svg"
   height="24"
   version="1.1"
   width="24"
   id="svg2">
  <metadata
     id="metadata18">
    <rdf:RDF>
      <cc:Work
         rdf:about="">
        <dc:format>image/svg+xml</dc:format>
        <dc:type
           rdf:resource="http://purl.org/dc/dcmitype/StillImage" />
        <dc:title></dc:title>
      </cc:Work>
    </rdf:RDF>
  </metadata>
  <defs
     id="defs16" />
  <path
     id="rect4135"
     d="m 4.1621094,2.0878906 c -1.1546197,0 -2.0742188,0.9859826 -2.0742188,2.1210938 V 19.791016 c 0,1.135111 0.9195988,2.121093 2.0742188,2.121093 H 19.837891 c 1.15462,0 2.074218,-0.985982 2.074218,-2.121093 V 4.2089844 c 0,-1.1351112 -0.919599,-2.1210938 -2.074218,-2.1210938 z m 0,2 H 19.837891 c 0.03533,0 0.07422,0.01539 0.07422,0.1210938 V 19.791016 c 0,0.105703 -0.03888,0.121093 -0.07422,0.121093 l -6.898835,0 -0.03898,-8.989093 c 0,0 -8.717692,-0.01659 -8.7184386,-0.0695 l -0.09375,-6.6445316 c -0.00149,-0.1056937 0.038884,-0.1210938 0.074219,-0.1210938 z"
     style="color:#000000;font-style:normal;font-variant:normal;font-weight:normal;font-stretch:normal;font-size:medium;line-height:normal;font-family:sans-serif;text-indent:0;text-align:start;text-decoration:none;text-decoration-line:none;text-decoration-style:solid;text-decoration-color:#000000;letter-spacing:normal;word-spacing:normal;text-transform:none;writing-mode:lr-tb;direction:ltr;baseline-shift:baseline;text-anchor:start;white-space:normal;clip-rule:nonzero;display:inline;overflow:visible;visibility:visible;opacity:1;isolation:auto;mix-blend-mode:normal;color-interpolation:sRGB;color-interpolation-filters:linearRGB;solid-color:#000000;solid-opacity:1;fill:#f6f5f0;fill-opacity:1;fill-rule:nonzero;stroke:none;stroke-width:2;stroke-linecap:square;stroke-linejoin:miter;stroke-miterlimit:4;stroke-dasharray:none;stroke-dashoffset:0;stroke-opacity:1;color-rendering:auto;image-rendering:auto;shape-rendering:auto;text-rendering:auto;enable-background:accumulate" />
</svg>
