<?xml version="1.0" encoding="UTF-8" standalone="no"?>
<svg
   xmlns:dc="http://purl.org/dc/elements/1.1/"
   xmlns:cc="http://creativecommons.org/ns#"
   xmlns:rdf="http://www.w3.org/1999/02/22-rdf-syntax-ns#"
   xmlns:svg="http://www.w3.org/2000/svg"
   xmlns="http://www.w3.org/2000/svg"
   width="128"
   height="128"
   viewBox="0 0 128 128"
   id="svg2"
   version="1.1">
  <defs
     id="defs4" />
  <metadata
     id="metadata7">
    <rdf:RDF>
      <cc:Work
         rdf:about="">
        <dc:format>image/svg+xml</dc:format>
        <dc:type
           rdf:resource="http://purl.org/dc/dcmitype/StillImage" />
        <dc:title></dc:title>
      </cc:Work>
    </rdf:RDF>
  </metadata>
  <path
     id="path4134"
     d="M 31.174805,15.875002 A 15.454602,15.454603 0 0 0 15.719727,31.33008 15.454602,15.454603 0 0 0 31.174805,46.783205 15.454602,15.454603 0 0 0 40.764649,43.447268 L 60.555665,63.238283 63.229493,60.564455 43.409181,40.74219 A 15.454602,15.454603 0 0 0 46.629884,31.33008 15.454602,15.454603 0 0 0 31.174805,15.875002 Z m 65.650391,0.0039 A 15.454602,15.454603 0 0 0 81.370118,31.333981 15.454602,15.454603 0 0 0 84.590821,40.74609 L 64.770509,60.568361 67.444337,63.24219 87.235352,43.451174 A 15.454602,15.454603 0 0 0 96.825196,46.787111 15.454602,15.454603 0 0 0 112.28027,31.333987 15.454602,15.454603 0 0 0 96.825196,15.878908 Z M 67.444337,64.755861 64.770509,67.42969 84.590821,87.251955 A 15.454602,15.454603 0 0 0 81.370118,96.664065 15.454602,15.454603 0 0 0 96.825196,112.11914 15.454602,15.454603 0 0 0 112.28027,96.664065 15.454602,15.454603 0 0 0 96.825196,81.21094 15.454602,15.454603 0 0 0 87.235352,84.546877 L 67.444337,64.755861 Z m -6.888672,0.0059 -19.791016,19.791016 A 15.454602,15.454603 0 0 0 31.174805,81.216799 15.454602,15.454603 0 0 0 15.719727,96.669924 15.454602,15.454603 0 0 0 31.174805,112.125 15.454602,15.454603 0 0 0 46.629884,96.669924 15.454602,15.454603 0 0 0 43.409181,87.257815 L 63.229493,67.435549 60.555665,64.761721 Z"
     style="opacity:1;fill:#30393d;fill-opacity:1;stroke:#f6f5f0;stroke-width:1.09079468;stroke-miterlimit:4;stroke-dasharray:none;stroke-opacity:1" />
  <path
     id="rect4187"
     d="m 53.216623,48.708816 10.599764,-9.899495 11.14377,9.899495 0,38.714096 -11.14377,-4.772971 -10.599764,4.772971 z"
     style="opacity:1;fill:#30393d;fill-opacity:1;stroke:#f6f5f0;stroke-width:1;stroke-miterlimit:4;stroke-dasharray:none;stroke-opacity:1" />
</svg>
