<?xml version="1.0" encoding="UTF-8" standalone="no"?>
<svg
   xmlns:dc="http://purl.org/dc/elements/1.1/"
   xmlns:cc="http://creativecommons.org/ns#"
   xmlns:rdf="http://www.w3.org/1999/02/22-rdf-syntax-ns#"
   xmlns:svg="http://www.w3.org/2000/svg"
   xmlns="http://www.w3.org/2000/svg"
   id="svg2"
   width="24"
   version="1.1"
   height="24">
  <metadata
     id="metadata18">
    <rdf:RDF>
      <cc:Work
         rdf:about="">
        <dc:format>image/svg+xml</dc:format>
        <dc:type
           rdf:resource="http://purl.org/dc/dcmitype/StillImage" />
        <dc:title></dc:title>
      </cc:Work>
    </rdf:RDF>
  </metadata>
  <defs
     id="defs16" />
  <g
     id="layer1"
     transform="matrix(0.635644,0,0,0.635644,-3.2554414,-3.2554728)"
     style="fill:none;stroke:#ffffff">
    <path
       id="rect4089"
       transform="matrix(1.5732076,0,0,1.5732076,5.1214853,5.1215347)"
       d="M 12 1 C 5.9451782 1 1 5.9451782 1 12 C 1 18.054822 5.9451782 23 12 23 C 18.054822 23 23 18.054822 23 12 C 23 5.9451782 18.054822 1 12 1 z M 12 4.4296875 C 16.201408 4.4296875 19.570312 7.7985928 19.570312 12 C 19.570312 13.405611 19.186563 14.713575 18.527344 15.837891 L 8.1621094 5.4726562 C 9.286425 4.8134372 10.594389 4.4296875 12 4.4296875 z M 5.4726562 8.1621094 L 15.837891 18.527344 C 14.713575 19.186563 13.405611 19.570312 12 19.570312 C 7.7985921 19.570312 4.4296875 16.201407 4.4296875 12 C 4.4296875 10.594389 4.8134373 9.286425 5.4726562 8.1621094 z "
       style="fill:#ffffff;fill-rule:evenodd;stroke:none" />
  </g>
</svg>
