<?xml version="1.0" encoding="UTF-8" standalone="no"?>
<svg
   xmlns:dc="http://purl.org/dc/elements/1.1/"
   xmlns:cc="http://creativecommons.org/ns#"
   xmlns:rdf="http://www.w3.org/1999/02/22-rdf-syntax-ns#"
   xmlns:svg="http://www.w3.org/2000/svg"
   xmlns="http://www.w3.org/2000/svg"
   version="1.1"
   id="svg2"
   height="24"
   width="24">
  <metadata
     id="metadata8">
    <rdf:RDF>
      <cc:Work
         rdf:about="">
        <dc:format>image/svg+xml</dc:format>
        <dc:type
           rdf:resource="http://purl.org/dc/dcmitype/StillImage" />
        <dc:title></dc:title>
      </cc:Work>
    </rdf:RDF>
  </metadata>
  <defs
     id="defs4" />
  <g
     transform="matrix(-0.70710678,0.70710678,-0.70710678,-0.70710678,28.970563,12)"
     id="g3421"
     style="fill:none;stroke:#f6f5f0">
    <g
       id="g3408"
       style="fill:none;stroke:#f6f5f0">
      <path
         id="path3391"
         d="m 9.501766,12.975698 c 0,0.906475 -0.709872,1.636237 -1.5916412,1.636237 l -5.0405879,0 c -0.8817692,0 -1.5916412,-0.729762 -1.5916412,-1.636237 l 0,-1.951396 c 0,-0.906475 0.709872,-1.6362367 1.5916412,-1.6362367 l 0,0 5.0405879,0 c 0.8817692,0 1.5916412,0.7297617 1.5916412,1.6362367"
         style="fill:none;stroke:#f6f5f0;stroke-width:1.06426549" />
      <path
         id="path3391-7"
         d="m 14.498234,12.975698 c 0,0.906475 0.709872,1.636237 1.591641,1.636237 l 5.040588,0 c 0.881769,0 1.591641,-0.729762 1.591641,-1.636237 l 0,-1.951396 c 0,-0.906475 -0.709872,-1.6362369 -1.591641,-1.6362369 l 0,0 -5.040588,0 c -0.881769,0 -1.591641,0.7297619 -1.591641,1.6362369"
         style="fill:none;stroke:#f6f5f0;stroke-width:1.06426549" />
    </g>
    <rect
       style="fill:none;stroke:#f6f5f0;stroke-width:0.88777554"
       id="rect3412"
       width="8.3749361"
       height="0.58388805"
       x="-16.047638"
       y="-12.291945"
       rx="0.088661753"
       ry="0.048096426"
       transform="scale(-1,-1)" />
  </g>
</svg>
