<?xml version="1.0" encoding="UTF-8" standalone="no"?>
<svg
   xmlns:dc="http://purl.org/dc/elements/1.1/"
   xmlns:cc="http://creativecommons.org/ns#"
   xmlns:rdf="http://www.w3.org/1999/02/22-rdf-syntax-ns#"
   xmlns:svg="http://www.w3.org/2000/svg"
   xmlns="http://www.w3.org/2000/svg"
   width="24"
   height="24"
   viewBox="0 0 24 24"
   id="svg2"
   version="1.1">
  <defs
     id="defs4" />
  <metadata
     id="metadata7">
    <rdf:RDF>
      <cc:Work
         rdf:about="">
        <dc:format>image/svg+xml</dc:format>
        <dc:type
           rdf:resource="http://purl.org/dc/dcmitype/StillImage" />
        <dc:title></dc:title>
        <cc:license
           rdf:resource="http://creativecommons.org/licenses/by/3.0/" />
      </cc:Work>
      <cc:License
         rdf:about="http://creativecommons.org/licenses/by/3.0/">
        <cc:permits
           rdf:resource="http://creativecommons.org/ns#Reproduction" />
        <cc:permits
           rdf:resource="http://creativecommons.org/ns#Distribution" />
        <cc:requires
           rdf:resource="http://creativecommons.org/ns#Notice" />
        <cc:requires
           rdf:resource="http://creativecommons.org/ns#Attribution" />
        <cc:permits
           rdf:resource="http://creativecommons.org/ns#DerivativeWorks" />
      </cc:License>
    </rdf:RDF>
  </metadata>
  <path
     id="rect3306"
     d="m 0.59786775,0.63176521 0,3.03152919 0,5.305176 3.04056865,0 0,-5.305176 5.3209953,0 0,-3.03152919 -5.3209953,0 -3.04056865,0 z m 14.44270125,0 0,3.03152919 5.320994,0 0,5.305176 3.040569,0 0,-8.33670519 -8.361564,0 z m -7.2213506,7.19988189 0,8.3367059 8.3615636,0 0,-8.3367059 -8.3615636,0 z m -7.22135065,7.1998819 0,5.305176 0,3.03153 8.36156395,0 0,-3.03153 -5.3209953,0 0,-5.305176 -3.04056865,0 z m 19.76369525,0 0,5.305176 -5.320994,0 0,3.03153 8.361563,0 0,-3.03153 0,-5.305176 -3.040568,0 z"
     style="fill:#ffffff;stroke:none" />
</svg>
