<?xml version="1.0" encoding="UTF-8" standalone="no"?>
<svg
   xmlns:dc="http://purl.org/dc/elements/1.1/"
   xmlns:cc="http://creativecommons.org/ns#"
   xmlns:rdf="http://www.w3.org/1999/02/22-rdf-syntax-ns#"
   xmlns:svg="http://www.w3.org/2000/svg"
   xmlns="http://www.w3.org/2000/svg"
   width="24px"
   height="24px"
   id="svg2"
   version="1.1">
  <metadata
     id="metadata10">
    <rdf:RDF>
      <cc:Work
         rdf:about="">
        <dc:format>image/svg+xml</dc:format>
        <dc:type
           rdf:resource="http://purl.org/dc/dcmitype/StillImage" />
        <dc:title></dc:title>
      </cc:Work>
    </rdf:RDF>
  </metadata>
  <defs
     id="defs4" />
  <g
     transform="translate(0.08988655,1.9322037)"
     id="g4135">
    <path
       id="path4195"
       d="m 4.1486359,11.702143 c 0,4.646155 3.256057,7.736272 7.9022111,7.736272 4.646155,0 7.620744,-3.305845 7.620744,-7.952 0,-4.6461547 -7.620743,-10.78923739 -7.620743,-10.78923739 0,0 -7.902212,6.35881019 -7.9022121,11.00496539 z M 12,5.7792289 C 15.492786,5.8869023 18.233416,8.2223142 18.220771,12 18.208126,15.777686 15.316413,18.437839 12,18.220771 8.4635141,17.989298 5.7015118,15.606267 5.7792289,12 5.856946,8.3937334 8.461553,5.834359 12,5.7792289 Z"
       style="color:#000000;font-style:normal;font-variant:normal;font-weight:normal;font-stretch:normal;font-size:medium;line-height:normal;font-family:sans-serif;text-indent:0;text-align:start;text-decoration:none;text-decoration-line:none;text-decoration-style:solid;text-decoration-color:#000000;letter-spacing:normal;word-spacing:normal;text-transform:none;direction:ltr;block-progression:tb;writing-mode:lr-tb;baseline-shift:baseline;text-anchor:start;white-space:normal;clip-rule:nonzero;display:inline;overflow:visible;visibility:visible;opacity:1;isolation:auto;mix-blend-mode:normal;color-interpolation:sRGB;color-interpolation-filters:linearRGB;solid-color:#000000;solid-opacity:1;fill:#f6f5f0;fill-opacity:1;fill-rule:evenodd;stroke:none;stroke-width:1.52932441;stroke-linecap:butt;stroke-linejoin:miter;stroke-miterlimit:4;stroke-dasharray:none;stroke-dashoffset:0;stroke-opacity:1;color-rendering:auto;image-rendering:auto;shape-rendering:auto;text-rendering:auto;enable-background:accumulate" />
    <path
       id="path4198"
       d="m 12,8.8398438 c -1.736492,0 -3.1601562,1.4236642 -3.1601562,3.1601562 0,1.736492 1.4236642,3.160156 3.1601562,3.160156 1.736492,0 3.160156,-1.423664 3.160156,-3.160156 0,-1.736492 -1.423664,-3.1601562 -3.160156,-3.1601562 z m 0,1.5000002 c 0.925832,0 1.660156,0.734324 1.660156,1.660156 0,0.925832 -0.734324,1.660156 -1.660156,1.660156 -0.925832,0 -1.660156,-0.734324 -1.660156,-1.660156 0,-0.925832 0.734324,-1.660156 1.660156,-1.660156 z"
       style="color:#000000;font-style:normal;font-variant:normal;font-weight:normal;font-stretch:normal;font-size:medium;line-height:normal;font-family:sans-serif;text-indent:0;text-align:start;text-decoration:none;text-decoration-line:none;text-decoration-style:solid;text-decoration-color:#000000;letter-spacing:normal;word-spacing:normal;text-transform:none;direction:ltr;block-progression:tb;writing-mode:lr-tb;baseline-shift:baseline;text-anchor:start;white-space:normal;clip-rule:nonzero;display:inline;overflow:visible;visibility:visible;opacity:1;isolation:auto;mix-blend-mode:normal;color-interpolation:sRGB;color-interpolation-filters:linearRGB;solid-color:#000000;solid-opacity:1;fill:#f6f5f0;fill-opacity:1;fill-rule:nonzero;stroke:none;stroke-width:1.5;stroke-linecap:butt;stroke-linejoin:miter;stroke-miterlimit:4;stroke-dasharray:none;stroke-dashoffset:0;stroke-opacity:1;color-rendering:auto;image-rendering:auto;shape-rendering:auto;text-rendering:auto;enable-background:accumulate" />
  </g>
</svg>
