<?xml version="1.0" encoding="UTF-8" standalone="no"?>
<svg
   xmlns:dc="http://purl.org/dc/elements/1.1/"
   xmlns:cc="http://creativecommons.org/ns#"
   xmlns:rdf="http://www.w3.org/1999/02/22-rdf-syntax-ns#"
   xmlns:svg="http://www.w3.org/2000/svg"
   xmlns="http://www.w3.org/2000/svg"
   xmlns:sodipodi="http://sodipodi.sourceforge.net/DTD/sodipodi-0.dtd"
   xmlns:inkscape="http://www.inkscape.org/namespaces/inkscape"
   width="128"
   height="128"
   viewBox="0 0 128 128"
   id="svg2"
   version="1.1"
   inkscape:version="0.91 r13725"
   sodipodi:docname="flying_wing_mark.svg">
  <sodipodi:namedview
     pagecolor="#ffffff"
     bordercolor="#666666"
     borderopacity="1"
     objecttolerance="10"
     gridtolerance="10"
     guidetolerance="10"
     inkscape:pageopacity="0"
     inkscape:pageshadow="2"
     inkscape:window-width="1920"
     inkscape:window-height="1044"
     id="namedview6"
     showgrid="false"
     inkscape:zoom="7.3750001"
     inkscape:cx="57.443179"
     inkscape:cy="44.453601"
     inkscape:window-x="0"
     inkscape:window-y="36"
     inkscape:window-maximized="1"
     inkscape:current-layer="svg2"
     showguides="true"
     inkscape:guide-bbox="true" />
  <defs
     id="defs4" />
  <metadata
     id="metadata7">
    <rdf:RDF>
      <cc:Work
         rdf:about="">
        <dc:format>image/svg+xml</dc:format>
        <dc:type
           rdf:resource="http://purl.org/dc/dcmitype/StillImage" />
        <dc:title />
      </cc:Work>
    </rdf:RDF>
  </metadata>
  <path
     style="opacity:1;fill:#262e31;fill-opacity:1;stroke:#f6f5f0;stroke-width:1.09050012;stroke-miterlimit:4;stroke-dasharray:none;stroke-opacity:1"
     d="m 63.948078,39.925336 0,0.0099 C 57.706357,40.102782 58.490133,49.62666 52.53723,52.551649 L 7.0033397,77.870476 C 3.7760012,82.478112 -1.6636102,96.309131 4.96434,87.508505 29.255206,79.600595 43.920675,74.260257 52.017977,77.051817 c 4.275334,1.473929 8.663815,6.087661 12.039,6.149152 3.375187,0.06149 6.575102,-4.282599 10.729897,-6.134072 8.362987,-3.726742 23.922575,2.836286 48.248776,10.441608 6.62797,8.800626 1.18834,-5.030393 -2.03899,-9.638029 L 75.460877,52.551599 C 69.508021,49.626633 70.293468,40.105323 64.051916,39.937624 l 0,-0.01234 c -0.0189,1.71e-4 -0.03409,0.0045 -0.05287,0.0049 -0.0181,-3.21e-4 -0.03277,-0.0048 -0.05097,-0.0049 z"
     id="rect4191"
     inkscape:connector-curvature="0"
     sodipodi:nodetypes="cccccszscccccccc" />
  <path
     style="fill:none;fill-rule:evenodd;stroke:#f6f5f0;stroke-width:1.09050012px;stroke-linecap:butt;stroke-linejoin:miter;stroke-opacity:1"
     d="m 7.9962222,86.450366 0.00752,-3.809681 18.7074173,-6.062086 -0.0022,3.87092 z"
     id="path4174"
     inkscape:connector-curvature="0"
     sodipodi:nodetypes="ccccc" />
  <path
     style="fill:none;fill-rule:evenodd;stroke:#f6f5f0;stroke-width:1.09050012px;stroke-linecap:butt;stroke-linejoin:miter;stroke-opacity:1"
     d="m 119.86535,86.428441 -0.007,-3.809681 -18.70741,-6.062086 0.002,3.87092 z"
     id="path4174-3"
     inkscape:connector-curvature="0"
     sodipodi:nodetypes="ccccc" />
</svg>
