<?xml version="1.0" encoding="UTF-8" standalone="no"?>
<svg
   xmlns:dc="http://purl.org/dc/elements/1.1/"
   xmlns:cc="http://creativecommons.org/ns#"
   xmlns:rdf="http://www.w3.org/1999/02/22-rdf-syntax-ns#"
   xmlns:svg="http://www.w3.org/2000/svg"
   xmlns="http://www.w3.org/2000/svg"
   xmlns:sodipodi="http://sodipodi.sourceforge.net/DTD/sodipodi-0.dtd"
   xmlns:inkscape="http://www.inkscape.org/namespaces/inkscape"
   width="128"
   height="128"
   viewBox="0 0 128 128"
   id="svg2"
   version="1.1"
   inkscape:version="0.91 r13725"
   sodipodi:docname="flying_wing_mark.svg">
  <sodipodi:namedview
     pagecolor="#ffffff"
     bordercolor="#666666"
     borderopacity="1"
     objecttolerance="10"
     gridtolerance="10"
     guidetolerance="10"
     inkscape:pageopacity="0"
     inkscape:pageshadow="2"
     inkscape:window-width="1920"
     inkscape:window-height="1044"
     id="namedview6"
     showgrid="false"
     inkscape:zoom="2.6074563"
     inkscape:cx="91.758296"
     inkscape:cy="89.852706"
     inkscape:window-x="0"
     inkscape:window-y="36"
     inkscape:window-maximized="1"
     inkscape:current-layer="svg2"
     showguides="true"
     inkscape:guide-bbox="true" />
  <defs
     id="defs4" />
  <metadata
     id="metadata7">
    <rdf:RDF>
      <cc:Work
         rdf:about="">
        <dc:format>image/svg+xml</dc:format>
        <dc:type
           rdf:resource="http://purl.org/dc/dcmitype/StillImage" />
        <dc:title />
      </cc:Work>
    </rdf:RDF>
  </metadata>
  <g
     id="g4252"
     transform="matrix(1.0343374,0,0,1.1497123,-2.1975947,-8.4311273)">
    <path
       sodipodi:nodetypes="cccccszscccccccc"
       inkscape:connector-curvature="0"
       id="rect4191"
       d="m 63.949803,42.059621 0,0.0086 c -6.034512,0.145739 -5.276755,8.429445 -11.032037,10.97355 L 8.8954865,75.063651 c -3.120199,4.007643 -8.37922895,16.037626 -1.97131,8.382992 23.4844705,-6.878164 37.6630825,-11.523098 45.4915745,-9.095047 4.133404,1.281998 8.376198,5.294943 11.639336,5.348427 3.263139,0.05348 6.356825,-3.724931 10.373691,-5.335311 8.085357,-3.241456 23.128406,2.466953 46.647042,9.081931 6.40793,7.654634 1.14889,-4.375349 -1.9713,-8.382992 L 75.080406,53.041727 C 69.32517,50.497642 70.084542,42.21617 64.050194,42.070309 l 0,-0.01073 c -0.01827,1.49e-4 -0.03296,0.0039 -0.05111,0.0043 -0.0175,-2.79e-4 -0.03168,-0.0042 -0.04928,-0.0043 z"
       style="opacity:1;fill:#262e31;fill-opacity:1;stroke:#f6f5f0;stroke-width:1;stroke-miterlimit:4;stroke-dasharray:none;stroke-opacity:1" />
    <path
       sodipodi:nodetypes="ccccc"
       inkscape:connector-curvature="0"
       id="path4174"
       d="m 9.7627119,82.525424 0.1694916,-3 10.4406785,-2.983051 -0.220339,3.033898 z"
       style="fill:none;fill-rule:evenodd;stroke:#f6f5f0;stroke-width:1px;stroke-linecap:butt;stroke-linejoin:miter;stroke-opacity:1" />
    <path
       sodipodi:nodetypes="ccccc"
       inkscape:connector-curvature="0"
       id="path4174-6"
       d="m 20.144907,79.554805 0.169492,-3 10.440678,-2.983051 -0.220339,3.033898 z"
       style="fill:none;fill-rule:evenodd;stroke:#f6f5f0;stroke-width:1px;stroke-linecap:butt;stroke-linejoin:miter;stroke-opacity:1" />
    <path
       sodipodi:nodetypes="ccccc"
       inkscape:connector-curvature="0"
       id="path4174-7"
       d="m 118.27789,82.567947 -0.16949,-3 -10.44068,-2.983051 0.22034,3.033898 z"
       style="fill:none;fill-rule:evenodd;stroke:#f6f5f0;stroke-width:1px;stroke-linecap:butt;stroke-linejoin:miter;stroke-opacity:1" />
    <path
       sodipodi:nodetypes="ccccc"
       inkscape:connector-curvature="0"
       id="path4174-6-5"
       d="m 107.89569,79.597328 -0.16949,-3 -10.440676,-2.983051 0.220339,3.033898 z"
       style="fill:none;fill-rule:evenodd;stroke:#f6f5f0;stroke-width:1px;stroke-linecap:butt;stroke-linejoin:miter;stroke-opacity:1" />
  </g>
</svg>
