<?xml version="1.0" encoding="UTF-8" standalone="no"?>
<svg
   xmlns:dc="http://purl.org/dc/elements/1.1/"
   xmlns:cc="http://creativecommons.org/ns#"
   xmlns:rdf="http://www.w3.org/1999/02/22-rdf-syntax-ns#"
   xmlns:svg="http://www.w3.org/2000/svg"
   xmlns="http://www.w3.org/2000/svg"
   height="48"
   version="1.1"
   width="48"
   id="svg2">
  <metadata
     id="metadata18">
    <rdf:RDF>
      <cc:Work
         rdf:about="">
        <dc:format>image/svg+xml</dc:format>
        <dc:type
           rdf:resource="http://purl.org/dc/dcmitype/StillImage" />
        <dc:title></dc:title>
      </cc:Work>
    </rdf:RDF>
  </metadata>
  <defs
     id="defs16" />
  <g
     transform="matrix(1.756063,0.03754878,-0.03761836,1.7528154,42.080498,-1800.094)"
     id="g4">
    <path
       style="fill:#2c3e50;stroke:#ecf0f1;stroke-width:1.0854336"
       d="m 22.835384,1040.4084 c 0,6.0006 -4.854773,10.8648 -10.843809,10.8648 -5.9888195,0 -10.8438102,-4.8642 -10.8438102,-10.8648 0,-6.0004 4.8549907,-10.8649 10.8438102,-10.8649 5.989036,0 10.843809,4.8645 10.843809,10.8649 z"
       id="path6" />
    <path
       style="fill:#34495e"
       d="m 20.925161,1039.6655 c 3.01e-4,5.2282 -4.226053,9.4658 -9.440147,9.4655 -5.2139039,-3e-4 -9.4409335,-4.2384 -9.4412341,-9.4666 -3.006e-4,-5.2279 4.2262415,-9.4658 9.4401461,-9.4655 5.214093,3e-4 9.440934,4.2387 9.441235,9.4666 z"
       id="path8" />
  </g>
  <path
     id="rect4155"
     d="m 24.000003,13.882505 -1.880963,1.788345 -8.760505,8.329149 1.330183,1.264689 0,6.323434 0,2.529373 18.622563,0 0,-2.529373 0,-6.323434 1.330184,-1.264689 -3.990549,-3.79406 0,-3.79406 -2.660368,0 0,1.264686 -2.109588,-2.005715 z m 0,3.576694 6.650913,6.323432 0,7.805491 -3.99055,0 0,-5.05875 -5.320733,0 0,5.05875 -3.990549,0 0,-7.805491 z"
     style="opacity:1;fill:#ecf0f1;fill-opacity:1;stroke:none;stroke-width:0.1;stroke-linecap:round;stroke-linejoin:miter;stroke-miterlimit:4;stroke-dasharray:none;stroke-opacity:0.29943501" />
</svg>
