<?xml version="1.0" encoding="UTF-8" standalone="no"?>
<svg
   xmlns:dc="http://purl.org/dc/elements/1.1/"
   xmlns:cc="http://creativecommons.org/ns#"
   xmlns:rdf="http://www.w3.org/1999/02/22-rdf-syntax-ns#"
   xmlns:svg="http://www.w3.org/2000/svg"
   xmlns="http://www.w3.org/2000/svg"
   version="1.1"
   id="svg2"
   viewBox="0 0 48 48"
   height="48"
   width="48">
  <defs
     id="defs4" />
  <metadata
     id="metadata7">
    <rdf:RDF>
      <cc:Work
         rdf:about="">
        <dc:format>image/svg+xml</dc:format>
        <dc:type
           rdf:resource="http://purl.org/dc/dcmitype/StillImage" />
        <dc:title></dc:title>
      </cc:Work>
    </rdf:RDF>
  </metadata>
  <g
     id="flowRoot3335"
     style="font-style:normal;font-weight:normal;font-size:50px;line-height:125%;font-family:sans-serif;letter-spacing:0px;word-spacing:0px;fill:#34495e;fill-opacity:1;stroke:#ecf0f1;stroke-width:1px;stroke-linecap:butt;stroke-linejoin:miter;stroke-opacity:1"
     transform="translate(-0.82324219,-17.542536)">
    <circle
       r="22.258064"
       cy="41.542538"
       cx="24.823242"
       id="path3334"
       style="fill:#455a64;stroke:#fafafa;stroke-width:2;stroke-miterlimit:4;stroke-dasharray:none" />
    <g
       transform="matrix(0.63539494,0,0,0.62412335,-6.996736,2.1487527)"
       id="g4176">
      <path
         id="rect4155"
         d="m 50.079065,43.796718 -3.30453,3.415289 -15.39077,15.906577 2.33692,2.415238 0,12.076166 0,4.830466 32.71676,0 0,-4.830466 0,-12.076166 2.3369,-2.415238 -7.01073,-7.245699 0,-7.2457 -4.67381,0 0,2.415232 -3.7062,-3.83041 z m 0,6.830585 11.68455,12.076163 0,14.906522 -7.01074,0 0,-9.660938 -9.34764,0 0,9.660938 -7.01073,0 0,-14.906522 z"
         style="opacity:1;fill:#fafafa;fill-opacity:1;stroke:none;stroke-width:0.1;stroke-linecap:round;stroke-linejoin:miter;stroke-miterlimit:4;stroke-dasharray:none;stroke-opacity:0.29943501" />
    </g>
  </g>
</svg>
