<?xml version="1.0" encoding="UTF-8" standalone="no"?>
<svg
   xmlns:dc="http://purl.org/dc/elements/1.1/"
   xmlns:cc="http://creativecommons.org/ns#"
   xmlns:rdf="http://www.w3.org/1999/02/22-rdf-syntax-ns#"
   xmlns:svg="http://www.w3.org/2000/svg"
   xmlns="http://www.w3.org/2000/svg"
   version="1.1"
   id="svg2"
   viewBox="0 0 128 64"
   height="64"
   width="128">
  <defs
     id="defs4" />
  <metadata
     id="metadata7">
    <rdf:RDF>
      <cc:Work
         rdf:about="">
        <dc:format>image/svg+xml</dc:format>
        <dc:type
           rdf:resource="http://purl.org/dc/dcmitype/StillImage" />
        <dc:title></dc:title>
      </cc:Work>
    </rdf:RDF>
  </metadata>
  <g
     transform="translate(0,-988.3621)"
     id="layer1">
    <path
       id="rect4141"
       d="m 51.766193,1001.244 c 4.686069,-11.50973 19.362228,-11.29184 24.129933,0 4.767705,11.2919 1.202819,12.5106 9.113767,17.337 7.910948,4.8264 24.816037,11.9446 27.921347,14.656 3.10531,2.7115 2.90329,16.0281 -0.84022,14.6133 -3.74351,-1.4148 -10.97155,-5.9262 -24.088914,-8.4885 -13.117371,-2.5623 -18.004911,8.4654 -24.088916,8.333 -6.084005,-0.1324 -9.870304,-9.4316 -24.170948,-8.333 -14.300644,1.0986 -20.327829,6.6289 -24.170947,8.4885 -3.843118,1.8597 -3.446906,-11.1762 0.648006,-14.5056 4.094912,-3.3294 18.903274,-10.5493 26.515158,-14.7368 7.611884,-4.1875 4.345665,-5.8541 9.031734,-17.3639 z"
       style="fill:#2c3e50;fill-opacity:1;stroke:#ecf0f1;stroke-width:2.658;stroke-linecap:round;stroke-linejoin:miter;stroke-miterlimit:4;stroke-dasharray:none;stroke-opacity:1" />
  </g>
</svg>
