<?xml version="1.0" encoding="UTF-8" standalone="no"?>
<svg
   xmlns:dc="http://purl.org/dc/elements/1.1/"
   xmlns:cc="http://creativecommons.org/ns#"
   xmlns:rdf="http://www.w3.org/1999/02/22-rdf-syntax-ns#"
   xmlns:svg="http://www.w3.org/2000/svg"
   xmlns="http://www.w3.org/2000/svg"
   height="24"
   version="1.1"
   width="24"
   id="svg2">
  <metadata
     id="metadata18">
    <rdf:RDF>
      <cc:Work
         rdf:about="">
        <dc:format>image/svg+xml</dc:format>
        <dc:type
           rdf:resource="http://purl.org/dc/dcmitype/StillImage" />
        <dc:title></dc:title>
      </cc:Work>
    </rdf:RDF>
  </metadata>
  <defs
     id="defs16" />
  <g
     transform="matrix(1.0303024,0,0,0.85184742,-0.36362906,0.08994194)"
     id="g4239">
    <g
       transform="matrix(1.0519921,0,0,0.95335264,-0.62390521,0.65219751)"
       id="g4246">
      <g
         transform="translate(0,0.3774697)"
         id="g4253">
        <path
           style="opacity:1;fill:#e53535;fill-opacity:1;stroke:none;stroke-width:6.9000001;stroke-miterlimit:4;stroke-dasharray:none;stroke-opacity:1"
           d="M 7.3515625,0.1953125 7.9375,5.4414062 l 8.125,0 0.585938,-5.2460937 c -3.08658,-0.89949385 -6.085603,-1.10827908 -9.2968755,0 z"
           id="rect4137" />
        <path
           style="opacity:1;fill:#f6f5f0;fill-opacity:1;stroke:none;stroke-width:6.9000001;stroke-miterlimit:4;stroke-dasharray:none;stroke-opacity:1"
           d="m 16.0625,5.4414062 c -2.53486,-0.8201727 -5.242637,-1.0239673 -8.125,0 l 0.6679688,5.9863278 c 2.2630212,-0.296365 4.5260412,-0.281717 6.7890622,0 z"
           id="path4210" />
        <path
           style="opacity:1;fill:#e53535;fill-opacity:1;stroke:none;stroke-width:6.9000001;stroke-miterlimit:4;stroke-dasharray:none;stroke-opacity:1"
           d="m 8.6054688,11.427734 0.5859374,5.248047 5.6171878,0 0.585937,-5.248047 c -1.833157,-0.770231 -4.901702,-0.613858 -6.7890622,0 z"
           id="path4212" />
        <path
           style="opacity:1;fill:#f6f5f0;fill-opacity:1;stroke:none;stroke-width:6.9000001;stroke-miterlimit:4;stroke-dasharray:none;stroke-opacity:1"
           d="m 14.808594,16.675781 c -1.872396,-0.616435 -3.744792,-0.655269 -5.6171878,0 l 0.6679688,5.986328 4.28125,0 z"
           id="path4230" />
        <path
           style="opacity:1;fill:#e53535;fill-opacity:1;stroke:none;stroke-width:6.9000001;stroke-miterlimit:4;stroke-dasharray:none;stroke-opacity:1"
           d="m 9.859375,22.662109 0.570313,5.105469 c 1.205937,-0.495344 2.191408,-0.304122 3.140624,0 l 0.570313,-5.105469 c -1.427083,-0.554931 -2.854167,-0.601007 -4.28125,0 z"
           id="path4232" />
      </g>
    </g>
  </g>
  <rect
     y="-8.7496471"
     x="-26.411005"
     height="1.1268696"
     width="0.070429347"
     id="rect4147"
     style="opacity:1;fill:#e53535;fill-opacity:1;stroke:none;stroke-width:6.9000001;stroke-miterlimit:4;stroke-dasharray:none;stroke-opacity:1" />
</svg>
