<?xml version="1.0" encoding="UTF-8" standalone="no"?>
<svg
   xmlns:dc="http://purl.org/dc/elements/1.1/"
   xmlns:cc="http://creativecommons.org/ns#"
   xmlns:rdf="http://www.w3.org/1999/02/22-rdf-syntax-ns#"
   xmlns:svg="http://www.w3.org/2000/svg"
   xmlns="http://www.w3.org/2000/svg"
   version="1.1"
   id="svg2"
   height="64"
   width="64">
  <metadata
     id="metadata10">
    <rdf:RDF>
      <cc:Work
         rdf:about="">
        <dc:format>image/svg+xml</dc:format>
        <dc:type
           rdf:resource="http://purl.org/dc/dcmitype/StillImage" />
        <dc:title></dc:title>
      </cc:Work>
    </rdf:RDF>
  </metadata>
  <defs
     id="defs4" />
  <g
     transform="matrix(1.2126316,0,0,1.2126316,7.2416903,10.866939)"
     id="text4135"
     style="font-style:normal;font-weight:normal;font-size:40px;line-height:125%;font-family:sans-serif;letter-spacing:0px;word-spacing:0px;fill:#ffffff;fill-opacity:1;stroke:none;stroke-width:1px;stroke-linecap:butt;stroke-linejoin:miter;stroke-opacity:1">
    <path
       style="fill:#ffffff"
       id="path4140"
       d="m 17.39943,27.310249 3.964844,0 0,4.960938 -3.964844,0 0,-4.960938 z m 3.847657,-2.871093 -3.730469,0 0,-3.007813 q 0,-1.972656 0.546875,-3.242187 0.546875,-1.269532 2.304687,-2.949219 l 1.757813,-1.738281 q 1.113281,-1.035157 1.601562,-1.953125 0.507813,-0.917969 0.507813,-1.8750004 0,-1.7382813 -1.289063,-2.8125 -1.269531,-1.0742188 -3.378906,-1.0742188 -1.542969,0 -3.300781,0.6835938 -1.738281,0.6835937 -3.632813,1.9921875 l 0,-3.671875 q 1.835938,-1.1132813 3.710938,-1.6601563 1.894531,-0.546875 3.90625,-0.546875 3.59375,0 5.761719,1.8945313 2.1875,1.8945312 2.1875,5 0,1.4843749 -0.703125,2.8320309 -0.703125,1.328125 -2.460938,3.007813 l -1.71875,1.679687 q -0.917969,0.917969 -1.308594,1.445313 -0.371093,0.507812 -0.527343,0.996094 -0.117188,0.410156 -0.175782,0.996093 -0.05859,0.585938 -0.05859,1.601563 l 0,2.402344 z" />
  </g>
</svg>
